<svg xmlns="http://www.w3.org/2000/svg" xmlns:xlink="http://www.w3.org/1999/xlink" width="133.198" height="48.899" viewBox="0 0 133.198 48.899">
  <defs>
    <filter id="Path_2" x="0" y="0" width="129.751" height="48.899" filterUnits="userSpaceOnUse">
      <feOffset dx="3" dy="3" input="SourceAlpha"/>
      <feGaussianBlur stdDeviation="1.5" result="blur"/>
      <feFlood flood-opacity="0.549"/>
      <feComposite operator="in" in2="blur"/>
      <feComposite in="SourceGraphic"/>
    </filter>
  </defs>
  <g id="Symbol_58_1" data-name="Symbol 58 – 1" transform="translate(-634.574 -142.601)">
    <g id="Group_410" data-name="Group 410" transform="translate(636 144)">
      <g transform="matrix(1, 0, 0, 1, -1.43, -1.4)" filter="url(#Path_2)">
        <path id="Path_2-2" data-name="Path 2" d="M773.584,919.414c27.685,20.3,1.469,39.9,1.469,39.9H894.334" transform="translate(-772.08 -917.91)" fill="#43425d"/>
      </g>
      <g id="Group_376" data-name="Group 376">
        <g id="Group_388" data-name="Group 388">
          <path id="Path_5" data-name="Path 5" d="M1002.181,959.314s26.216-19.6-1.469-39.91h-2.927s-6.07.043-10.1,0c-10.154-.111-23.492-.128-36.055,0-34.581.353-69.99,0-69.99,0" transform="translate(-881.637 -919.314)" fill="#43425d"/>
        </g>
      </g>
    </g>
    <g id="Group_399" data-name="Group 399" transform="translate(636 144)">
      <text id="Next" transform="translate(39.409 26.983)" fill="#fff" font-size="20" font-family="Roboto-Regular, Roboto"><tspan x="0" y="0">Next</tspan></text>
      <g id="arrow-point-to-right" transform="translate(107.715 9.385)">
        <g id="Group_1" data-name="Group 1">
          <path id="Path_1" data-name="Path 1" d="M9.8,12.284,2.131,21.9a1.079,1.079,0,0,1-1.765,0,1.859,1.859,0,0,1,0-2.214l6.782-8.505L.366,2.673a1.859,1.859,0,0,1,0-2.214,1.079,1.079,0,0,1,1.765,0L9.8,10.071a1.858,1.858,0,0,1,0,2.213Z" transform="translate(0 0)" fill="#fff"/>
        </g>
      </g>
    </g>
  </g>
</svg>
