<svg xmlns="http://www.w3.org/2000/svg" xmlns:xlink="http://www.w3.org/1999/xlink" width="139.198" height="48.899" viewBox="0 0 139.198 48.899">
  <defs>
    <style>
      .cls-1 {
        fill: #43425d;
      }

      .cls-2, .cls-3 {
        fill: #fff;
      }

      .cls-2 {
        font-size: 20px;
        font-family: Roboto-Regular, Roboto;
      }

      .cls-4 {
        filter: url(#Path_2);
      }
    </style>
    <filter id="Path_2" x="9.447" y="0" width="129.751" height="48.899" filterUnits="userSpaceOnUse">
      <feOffset dx="3" dy="3" input="SourceAlpha"/>
      <feGaussianBlur stdDeviation="1.5" result="blur"/>
      <feFlood flood-opacity="0.549"/>
      <feComposite operator="in" in2="blur"/>
      <feComposite in="SourceGraphic"/>
    </filter>
  </defs>
  <g id="Symbol_59_1" data-name="Symbol 59 – 1" transform="translate(-226 -142.601)">
    <g id="Group_18" data-name="Group 18" transform="translate(226 144)">
      <g class="cls-4" transform="matrix(1, 0, 0, 1, 0, -1.4)">
        <path id="Path_2-2" data-name="Path 2" class="cls-1" d="M894.334,919.414c-27.685,20.3-1.469,39.9-1.469,39.9H773.584" transform="translate(-762.64 -917.91)"/>
      </g>
      <path id="Path_5" data-name="Path 5" class="cls-1" d="M892.865,959.314s-26.216-19.6,1.469-39.91h2.927s6.07.043,10.1,0c10.154-.111,23.492-.128,36.055,0,34.581.353,69.99,0,69.99,0" transform="translate(-881.637 -919.314)"/>
    </g>
    <g id="Group_19" data-name="Group 19" transform="translate(239.896 150.983)">
      <text id="Previous" class="cls-2" transform="translate(21.468 20)"><tspan x="0" y="0">Previous</tspan></text>
      <g id="arrow-point-to-right" transform="translate(0 2.402)">
        <g id="Group_1" data-name="Group 1">
          <path id="Path_1" data-name="Path 1" class="cls-3" d="M.366,12.284,8.03,21.9a1.079,1.079,0,0,0,1.765,0,1.859,1.859,0,0,0,0-2.214L3.014,11.178,9.8,2.673A1.859,1.859,0,0,0,9.8.459a1.079,1.079,0,0,0-1.765,0L.365,10.071a1.858,1.858,0,0,0,0,2.213Z" transform="translate(0 0)"/>
        </g>
      </g>
    </g>
  </g>
</svg>
