<svg xmlns="http://www.w3.org/2000/svg" xmlns:xlink="http://www.w3.org/1999/xlink" width="115.901" height="48.899" viewBox="0 0 115.901 48.899">
  <defs>
    <filter id="Path_2" x="0" y="0" width="113.805" height="48.899" filterUnits="userSpaceOnUse">
      <feOffset dx="3" dy="3" input="SourceAlpha"/>
      <feGaussianBlur stdDeviation="1.5" result="blur"/>
      <feFlood flood-opacity="0.549"/>
      <feComposite operator="in" in2="blur"/>
      <feComposite in="SourceGraphic"/>
    </filter>
  </defs>
  <g id="Symbol_59_1" data-name="Symbol 59 – 1" transform="translate(-776.871 -142.601)">
    <g id="Group_18" data-name="Group 18" transform="translate(778.297 144)">
      <g transform="matrix(1, 0, 0, 1, -1.43, -1.4)" filter="url(#Path_2)">
        <path id="Path_2-2" data-name="Path 2" d="M773.584,919.414c24.029,20.3,1.275,39.9,1.275,39.9H878.389" transform="translate(-772.08 -917.91)" fill="#43425d"/>
      </g>
      <path id="Path_5" data-name="Path 5" d="M986.358,959.314s22.775-19.6-1.277-39.91h-2.543s-5.273.043-8.777,0c-8.821-.111-20.409-.128-31.323,0-30.042.353-60.8,0-60.8,0" transform="translate(-881.637 -919.314)" fill="#43425d"/>
    </g>
    <g id="Group_19" data-name="Group 19" transform="translate(809.705 151.983)">
      <text id="Last" transform="translate(0 21)" fill="#fff" font-size="20" font-family="Roboto-Regular, Roboto"><tspan x="0" y="0">Last</tspan></text>
      <g id="Group_350" data-name="Group 350" transform="translate(50.306 1.402)">
        <g id="arrow-point-to-right" transform="translate(5)">
          <g id="Group_1" data-name="Group 1">
            <path id="Path_1" data-name="Path 1" d="M9.8,12.284,2.131,21.9a1.079,1.079,0,0,1-1.765,0,1.859,1.859,0,0,1,0-2.214l6.782-8.505L.366,2.673a1.859,1.859,0,0,1,0-2.214,1.079,1.079,0,0,1,1.765,0L9.8,10.071a1.858,1.858,0,0,1,0,2.213Z" transform="translate(0 0)" fill="#fff"/>
          </g>
        </g>
        <g id="arrow-point-to-right-2" data-name="arrow-point-to-right" transform="translate(0 0)">
          <g id="Group_1-2" data-name="Group 1">
            <path id="Path_1-2" data-name="Path 1" d="M9.8,12.284,2.131,21.9a1.079,1.079,0,0,1-1.765,0,1.859,1.859,0,0,1,0-2.214l6.782-8.505L.366,2.673a1.859,1.859,0,0,1,0-2.214,1.079,1.079,0,0,1,1.765,0L9.8,10.071a1.858,1.858,0,0,1,0,2.213Z" transform="translate(0 0)" fill="#fff"/>
          </g>
        </g>
      </g>
    </g>
  </g>
</svg>
